<svg id="visual" viewBox="0 0 900 600" width="900" height="600" xmlns="http://www.w3.org/2000/svg" xmlns:xlink="http://www.w3.org/1999/xlink" version="1.1"><rect width="900" height="600" fill="#001829"></rect><g><g transform="translate(86 15)"><path d="M0 -100.4L59 -81.2L95.5 -31L95.5 31L59 81.2L0 100.4L-59 81.2L-95.5 31L-95.5 -31L-59 -81.2Z" fill="none" stroke="#297EA6" stroke-width="2"></path></g><g transform="translate(757 403)"><path d="M0 -95L55.8 -76.9L90.4 -29.4L90.4 29.4L55.8 76.9L0 95L-55.8 76.9L-90.4 29.4L-90.4 -29.4L-55.8 -76.9Z" fill="none" stroke="#297EA6" stroke-width="2"></path></g><g transform="translate(497 394)"><path d="M0 -90L52.9 -72.8L85.6 -27.8L85.6 27.8L52.9 72.8L0 90L-52.9 72.8L-85.6 27.8L-85.6 -27.8L-52.9 -72.8Z" stroke="#297EA6" fill="none" stroke-width="2"></path></g><g transform="translate(853 171)"><path d="M0 -76L44.7 -61.5L72.3 -23.5L72.3 23.5L44.7 61.5L0 76L-44.7 61.5L-72.3 23.5L-72.3 -23.5L-44.7 -61.5Z" stroke="#297EA6" fill="none" stroke-width="2"></path></g><g transform="translate(680 28)"><path d="M0 -99L58.2 -80.1L94.2 -30.6L94.2 30.6L58.2 80.1L0 99L-58.2 80.1L-94.2 30.6L-94.2 -30.6L-58.2 -80.1Z" stroke="#297EA6" fill="none" stroke-width="2"></path></g><g transform="translate(363 157)"><path d="M0 -94L55.3 -76L89.4 -29L89.4 29L55.3 76L0 94L-55.3 76L-89.4 29L-89.4 -29L-55.3 -76Z" stroke="#297EA6" fill="none" stroke-width="2"></path></g><g transform="translate(166 431)"><path d="M0 -83L48.8 -67.1L78.9 -25.6L78.9 25.6L48.8 67.1L0 83L-48.8 67.1L-78.9 25.6L-78.9 -25.6L-48.8 -67.1Z" stroke="#297EA6" fill="none" stroke-width="2"></path></g><g transform="translate(898 571)"><path d="M0 -81L47.6 -65.5L77 -25L77 25L47.6 65.5L0 81L-47.6 65.5L-77 25L-77 -25L-47.6 -65.5Z" stroke="#297EA6" fill="none" stroke-width="2"></path></g></g></svg>