<svg id="visual" viewBox="0 0 900 600" width="900" height="600" xmlns="http://www.w3.org/2000/svg" xmlns:xlink="http://www.w3.org/1999/xlink" version="1.1"><g stroke-width="1" stroke-linejoin="bevel"><path d="M435.3 221L385.7 152L355.7 179Z" fill="#1d3e53" stroke="#1d3e53"></path><path d="M355.7 179L365.7 295L435.3 221Z" fill="#51a9d4" stroke="#51a9d4"></path><path d="M355.7 179L325.1 301L365.7 295Z" fill="#59bdeb" stroke="#59bdeb"></path><path d="M385.7 152L265.1 182L355.7 179Z" fill="#387191" stroke="#387191"></path><path d="M355.7 179L265.1 182L325.1 301Z" fill="#387191" stroke="#387191"></path><path d="M435.3 221L476.3 50L385.7 152Z" fill="#264e67" stroke="#264e67"></path><path d="M358.7 0L210.1 163L265.1 182Z" fill="#1d3e53" stroke="#1d3e53"></path><path d="M358.7 0L265.1 182L385.7 152Z" fill="#59bdeb" stroke="#59bdeb"></path><path d="M265.1 182L129.6 189L325.1 301Z" fill="#0c1f2d" stroke="#0c1f2d"></path><path d="M476.3 50L358.7 0L385.7 152Z" fill="#1d3e53" stroke="#1d3e53"></path><path d="M252.1 546L402.7 399L325.1 301Z" fill="#2f5f7c" stroke="#2f5f7c"></path><path d="M325.1 301L402.7 399L365.7 295Z" fill="#1d3e53" stroke="#1d3e53"></path><path d="M365.7 295L402.7 399L435.3 221Z" fill="#00101c" stroke="#00101c"></path><path d="M435.3 221L604.9 257L476.3 50Z" fill="#1d3e53" stroke="#1d3e53"></path><path d="M493.3 423L604.9 257L435.3 221Z" fill="#387191" stroke="#387191"></path><path d="M585.9 0L524.3 0L476.3 50Z" fill="#51a9d4" stroke="#51a9d4"></path><path d="M476.3 50L524.3 0L358.7 0Z" fill="#4083a7" stroke="#4083a7"></path><path d="M402.7 399L493.3 423L435.3 221Z" fill="#152e40" stroke="#152e40"></path><path d="M493.3 423L619.9 335L604.9 257Z" fill="#00101c" stroke="#00101c"></path><path d="M402.7 399L465.3 451L493.3 423Z" fill="#1d3e53" stroke="#1d3e53"></path><path d="M816.4 473L759.4 289L619.9 335Z" fill="#4083a7" stroke="#4083a7"></path><path d="M177.1 0L129.6 189L210.1 163Z" fill="#4083a7" stroke="#4083a7"></path><path d="M210.1 163L129.6 189L265.1 182Z" fill="#2f5f7c" stroke="#2f5f7c"></path><path d="M402.7 399L353.7 600L465.3 451Z" fill="#51a9d4" stroke="#51a9d4"></path><path d="M650.9 92L585.9 0L476.3 50Z" fill="#0c1f2d" stroke="#0c1f2d"></path><path d="M650.9 92L476.3 50L604.9 257Z" fill="#1d3e53" stroke="#1d3e53"></path><path d="M768.4 197L650.9 92L604.9 257Z" fill="#264e67" stroke="#264e67"></path><path d="M358.7 0L177.1 0L210.1 163Z" fill="#59bdeb" stroke="#59bdeb"></path><path d="M106.6 0L75.6 178L129.6 189Z" fill="#0c1f2d" stroke="#0c1f2d"></path><path d="M129.6 189L78.6 307L325.1 301Z" fill="#387191" stroke="#387191"></path><path d="M75.6 178L78.6 307L129.6 189Z" fill="#00101c" stroke="#00101c"></path><path d="M177.1 0L106.6 0L129.6 189Z" fill="#152e40" stroke="#152e40"></path><path d="M763.4 270L768.4 197L604.9 257Z" fill="#1d3e53" stroke="#1d3e53"></path><path d="M650.9 92L766.4 0L585.9 0Z" fill="#2f5f7c" stroke="#2f5f7c"></path><path d="M759.4 289L763.4 270L604.9 257Z" fill="#0c1f2d" stroke="#0c1f2d"></path><path d="M759.4 289L604.9 257L619.9 335Z" fill="#4083a7" stroke="#4083a7"></path><path d="M593.9 540L619.9 335L493.3 423Z" fill="#00101c" stroke="#00101c"></path><path d="M145.6 517L252.1 546L325.1 301Z" fill="#0c1f2d" stroke="#0c1f2d"></path><path d="M573.9 600L593.9 540L465.3 451Z" fill="#387191" stroke="#387191"></path><path d="M465.3 451L593.9 540L493.3 423Z" fill="#152e40" stroke="#152e40"></path><path d="M252.1 546L353.7 600L402.7 399Z" fill="#59bdeb" stroke="#59bdeb"></path><path d="M78.6 307L145.6 517L325.1 301Z" fill="#59bdeb" stroke="#59bdeb"></path><path d="M252.1 546L182.1 600L353.7 600Z" fill="#264e67" stroke="#264e67"></path><path d="M75.6 178L0 316L78.6 307Z" fill="#51a9d4" stroke="#51a9d4"></path><path d="M78.6 307L0 428L145.6 517Z" fill="#1d3e53" stroke="#1d3e53"></path><path d="M0 45L0 316L75.6 178Z" fill="#4996be" stroke="#4996be"></path><path d="M0 316L0 320L78.6 307Z" fill="#0c1f2d" stroke="#0c1f2d"></path><path d="M768.4 197L766.4 0L650.9 92Z" fill="#2f5f7c" stroke="#2f5f7c"></path><path d="M106.6 0L0 45L75.6 178Z" fill="#00101c" stroke="#00101c"></path><path d="M353.7 600L573.9 600L465.3 451Z" fill="#0c1f2d" stroke="#0c1f2d"></path><path d="M593.9 540L816.4 473L619.9 335Z" fill="#2f5f7c" stroke="#2f5f7c"></path><path d="M573.9 600L578.3 600L593.9 540Z" fill="#152e40" stroke="#152e40"></path><path d="M106.6 0L0 0L0 45Z" fill="#00101c" stroke="#00101c"></path><path d="M145.6 517L182.1 600L252.1 546Z" fill="#0c1f2d" stroke="#0c1f2d"></path><path d="M164.6 600L182.1 600L145.6 517Z" fill="#152e40" stroke="#152e40"></path><path d="M0 320L0 428L78.6 307Z" fill="#59bdeb" stroke="#59bdeb"></path><path d="M0 600L164.6 600L145.6 517Z" fill="#152e40" stroke="#152e40"></path><path d="M797.4 600L816.4 473L593.9 540Z" fill="#152e40" stroke="#152e40"></path><path d="M759.4 289L900 237L763.4 270Z" fill="#1d3e53" stroke="#1d3e53"></path><path d="M763.4 270L900 237L768.4 197Z" fill="#4083a7" stroke="#4083a7"></path><path d="M768.4 197L900 149L766.4 0Z" fill="#1d3e53" stroke="#1d3e53"></path><path d="M900 405L900 237L759.4 289Z" fill="#0c1f2d" stroke="#0c1f2d"></path><path d="M900 237L900 149L768.4 197Z" fill="#4996be" stroke="#4996be"></path><path d="M900 149L900 0L766.4 0Z" fill="#51a9d4" stroke="#51a9d4"></path><path d="M816.4 473L900 405L759.4 289Z" fill="#51a9d4" stroke="#51a9d4"></path><path d="M0 428L0 600L145.6 517Z" fill="#00101c" stroke="#00101c"></path><path d="M578.3 600L797.4 600L593.9 540Z" fill="#4996be" stroke="#4996be"></path><path d="M816.4 473L900 506L900 405Z" fill="#0c1f2d" stroke="#0c1f2d"></path><path d="M797.4 600L900 506L816.4 473Z" fill="#1d3e53" stroke="#1d3e53"></path><path d="M797.4 600L900 600L900 506Z" fill="#0c1f2d" stroke="#0c1f2d"></path></g></svg>