<svg xmlns="http://www.w3.org/2000/svg" version="1.1" xmlns:xlink="http://www.w3.org/1999/xlink" viewBox="0 0 700 700" style="overflow: hidden; display: block;" width="700" height="700"><defs><linearGradient id="two-57" x1="350" y1="-350" x2="350" y2="350" spreadMethod="pad" gradientUnits="userSpaceOnUse"><stop offset="0%" stop-color="hsl(185, 53%, 55%)" stop-opacity="1"></stop><stop offset="100%" stop-color="hsl(0, 73%, 55%)" stop-opacity="1"></stop></linearGradient></defs><g id="two-0" transform="matrix(1 0 0 1 0 0)" opacity="1"><path transform="matrix(1 0 0 1 350 350)" id="two-56" d="M 152.267904 21.892819 C 144.789151 79.038504 326.573814 35.86401 312.349203 91.714001 C 301.063054 136.026732 193.718413 38.200481 174.311386 79.605342 C 156.644738 117.297104 252.497576 128.897833 263.174445 169.131946 C 267.361669 184.910842 256.565561 201.819628 250.318222 216.901974 C 244.016593 232.115384 239.6569 251.876349 225.415765 260.14366 C 208.835592 269.768836 186.127136 256.632569 167.320719 260.356121 C 153.050768 263.181482 140.345308 281.47885 126.503617 277.004283 C 75.958856 260.664812 93.519888 131.029141 41.244916 140.467286 C 21.168752 144.091998 48.845339 196.730679 28.905736 201.043815 C 13.015248 204.481087 16.026515 158.414454 0 161.148178 C -51.17447 169.877266 6.429102 320.029934 -44.849276 311.93356 C -101.394826 303.00555 14.195359 154.846426 -40.670518 138.511063 C -92.270616 123.148029 -76.374825 296.609621 -126.592641 277.199215 C -161.860275 263.567417 -75.773773 187.592476 -105.740518 164.535456 C -123.811846 150.63101 -147.077626 185.49046 -168.19036 194.102022 C -198.180182 206.334412 -242.395668 252.664322 -260.965495 226.127888 C -290.741316 183.577994 -195.061791 143.810941 -161.762256 103.958288 C -147.941826 87.418094 -111.061412 74.394576 -119.183009 54.429056 C -125.535304 38.813054 -153.235817 50.811036 -170.071737 49.937567 C -222.762454 47.203904 -318.258756 98.890802 -329.935773 47.437602 C -337.708972 13.186044 -239.229848 34.823996 -234.660263 0 C -232.044371 -19.935243 -269.878211 -23.143474 -280.348803 -40.308073 C -288.392493 -53.494215 -299.600459 -72.342803 -291.82044 -85.686213 C -280.596964 -104.935449 -248.54933 -99.1648 -226.698801 -103.529874 C -208.842313 -107.097059 -179.945996 -94.147736 -171.962824 -110.513797 C -158.606254 -137.895699 -234.388831 -163.507794 -219.129192 -189.876526 C -209.987272 -205.673808 -181.010338 -195.218023 -163.826594 -189.065968 C -129.354298 -176.724335 -107.116494 -98.997015 -77.061095 -119.909405 C -27.214221 -154.592599 -183.357055 -258.522754 -134.587058 -294.704548 C -114.984046 -309.247754 -91.550544 -269.21929 -74.052942 -252.201157 C -55.497862 -234.154525 -53.041069 -187.555424 -27.21513 -189.285382 C -8.732605 -190.52344 -17.309365 -231.782719 -0.000001 -238.379871 C 10.660258 -242.442836 25.250938 -235.66757 32.63335 -226.969939 C 48.370791 -208.428781 21.622613 -159.803177 45.328892 -154.376031 C 83.371874 -145.666741 75.680402 -255.629895 114.356291 -250.405349 C 130.388062 -248.239692 131.417209 -220.611885 131.3821 -204.434539 C 131.310833 -171.597083 103.834503 -143.260925 96.417693 -111.27195 C 94.151129 -101.496176 85.684509 -87.31867 93.484077 -81.004415 C 110.731537 -67.041479 135.705995 -97.658497 157.598994 -101.282724 C 179.545787 -104.915857 212.269366 -120.99821 224.993545 -102.75111 C 233.406375 -90.686696 211.358524 -75.736223 208.680379 -61.274088 C 206.803605 -51.139402 202.926035 -38.408149 208.946005 -30.041901 C 226.719471 -5.341238 298.876469 -30.306273 296.128979 -0.000001 C 291.793322 47.824603 158.499321 -25.721886 152.267904 21.892819 Z " fill="url(#two-57)" stroke="undefined" stroke-width="1" stroke-opacity="1" fill-opacity="1" visibility="visible" stroke-linecap="butt" stroke-linejoin="miter" stroke-miterlimit="4"></path></g></svg>